<svg version="1.1" id="Layer_1" xmlns:x="ns_extend;" xmlns:i="ns_ai;" xmlns:graph="ns_graphs;" xmlns="http://www.w3.org/2000/svg" xmlns:xlink="http://www.w3.org/1999/xlink" x="0px" y="0px" viewBox="0 0 251.1 63" style="enable-background:new 0 0 251.1 63;" xml:space="preserve">
 <style type="text/css">
  .st0{fill:#FABC1C;}
 </style>
 <metadata>
  <sfw xmlns="ns_sfw;">
   <slices>
   </slices>
   <sliceSourceBounds bottomLeftOrigin="true" height="63" width="251.1" x="447" y="170.9">
   </sliceSourceBounds>
  </sfw>
 </metadata>
 <g>
  <path d="M37.5,49.5c-0.1-0.4-0.7-0.5-1-0.2c-2.8,2.7-6.8,4.2-11.4,4.2c-9.3,0-14.5-6-14.5-14.7c0-8.7,5.3-14.6,14.5-14.6
		c4.7,0,8.6,1.5,11.4,4.2c0,0,0.1,0.1,0.1,0.1c0.4,0.4,1,0.2,1.2-0.2c1-2.5,2.4-4.8,4.1-6.9c0.3-0.3,0.2-0.8-0.1-1
		c-4.3-3.6-10.1-5.6-16.8-5.6c-14.4,0-25,10-25,24.1C0,52.9,10.6,63,25,63c6.4,0,12-1.9,16.2-5.2c0.3-0.2,0.4-0.7,0.1-1
		C39.7,54.5,38.4,52.1,37.5,49.5z">
  </path>
  <path d="M41.7,39.4c0-13,9.8-22.2,23.2-22.2c13.5,0,23.2,9.2,23.2,22.2s-9.7,22.3-23.2,22.3C51.4,61.7,41.7,52.4,41.7,39.4z
		 M77.8,39.4c0-8.3-5.5-13.6-13-13.6c-7.3,0-12.9,5.3-12.9,13.6S57.5,53,64.8,53C72.2,53,77.8,47.7,77.8,39.4z">
  </path>
  <path d="M118.2,17.5v8c0,0.5-0.4,0.8-0.8,0.8c0,0-0.1,0-0.1,0c-0.5-0.1-1-0.1-1.4-0.1c-7.8,0-12.8,4.6-12.8,13.6v20.5
		c0,0.5-0.4,0.8-0.8,0.8h-8.6c-0.5,0-0.8-0.4-0.8-0.8V18c0-0.5,0.4-0.8,0.8-0.8h8.1c0.5,0,0.8,0.4,0.8,0.8v5.6
		c2.8-4.4,7.9-6.7,14.8-6.9C117.8,16.6,118.2,17,118.2,17.5z">
  </path>
  <path d="M165.4,0.8v59.4c0,0.5-0.4,0.8-0.8,0.8h-8.2c-0.5,0-0.8-0.4-0.8-0.8v-4.8c-3.5,4.2-8.6,6.3-14.6,6.3
		c-12.8,0-22.2-8.9-22.2-22.6s9.5-22.5,22.2-22.5c5.7,0,10.7,1.9,14.2,5.9V0.8c0-0.5,0.4-0.8,0.8-0.8h8.6C165,0,165.4,0.4,165.4,0.8
		z M155.3,39.1c0-8.4-5.7-13.8-13.1-13.8c-7.4,0-13.1,5.3-13.1,13.8s5.7,13.8,13.1,13.8S155.3,47.5,155.3,39.1z">
  </path>
  <path d="M174.8,17.1h8.6c0.5,0,0.8,0.4,0.8,0.8v42.3c0,0.5-0.4,0.8-0.8,0.8h-8.6c-0.5,0-0.8-0.4-0.8-0.8V18
		C173.9,17.5,174.3,17.1,174.8,17.1z">
  </path>
  <path d="M240.8,0.8v25.9c-0.5,6.9-6.8,8-10.3,8.4c-0.1-12.5-7.4-18.4-20-18.4c-6.8,0-13.3,1.7-18,5c-0.3,0.2-0.5,0.7-0.3,1.1l3.2,6
		c0.2,0.4,0.7,0.5,1.1,0.3c0,0,0.1,0,0.1,0c3.3-2.4,8-3.8,12.6-3.8c7.3,0,11,3.5,11,9.5v0.7h-11.4c-13.3,0-18.3,5.8-18.3,13.1
		c0,7.7,6.4,13.2,16.4,13.2c6.6,0,11.4-2.1,13.8-5.9v4.5c0,0.5,0.4,0.8,0.8,0.8h8c0.5,0,0.8-0.4,0.8-0.8v-14c0-0.2-0.2-0.4-0.4-0.4
		c0,0-7.6,0-9.2,0c-0.2,0-0.3,0.1-0.3,0.3c-0.3,1-0.4,1.2-0.4,1.2c-1.7,4.5-6.1,6.8-11.1,6.8c-5.3,0-8.4-2.4-8.4-6.1
		c0-3.2,1.9-5.8,8.9-5.8h10.6h0.2H231c16.4-0.2,19.9-12,20.1-19.3c-0.4,12.8-3.6,17.9-9.7,20.9c-0.4,0.2-0.5,0.4-0.5,0.7v15.6
		c0,0.5,0.4,0.8,0.8,0.8h8.6c0.5,0,0.8-0.4,0.8-0.8V1.8c0-1.4-0.4-1.8-0.8-1.8h-8.6C241.2,0,240.8,0.4,240.8,0.8
		C240.8,0.8,240.8,0.8,240.8,0.8z">
  </path>
  <path class="st0" d="M173.3,5.5c0-3,2.5-5.4,5.8-5.4s5.8,2.2,5.8,5.2c0,3.2-2.4,5.6-5.8,5.6C175.8,10.9,173.3,8.5,173.3,5.5z">
  </path>
 </g>
</svg>