<?xml version="1.0" encoding="UTF-8"?>
<svg version="1.1" xmlns="http://www.w3.org/2000/svg" width="404" height="236">
<path d="M0 0 C1.33908374 0.00056958 1.33908374 0.00056958 2.70521969 0.00115067 C3.73132903 -0.00084038 4.75743838 -0.00283143 5.81464195 -0.00488281 C6.95566791 -0.00196997 8.09669387 0.00094287 9.27229637 0.00394398 C10.47371519 0.00308955 11.67513401 0.00223513 12.91295946 0.00135481 C16.26278436 -0.0000134 19.61255155 0.00313416 22.9623695 0.00813287 C26.56906594 0.012434 30.17576045 0.01099119 33.78245872 0.0102306 C40.03630891 0.00970515 46.2901487 0.01285414 52.54399627 0.01846844 C61.5861133 0.0265806 70.62822527 0.02919837 79.67034554 0.03045643 C94.33905185 0.0326474 109.00775262 0.0393087 123.67645591 0.04875904 C137.92938532 0.057932 152.18231322 0.0650134 166.43524498 0.06926686 C167.31315895 0.06952958 168.19107293 0.0697923 169.09559036 0.07006299 C173.49963667 0.07136798 177.90368298 0.0726317 182.3077293 0.07387489 C218.86871175 0.0842489 255.4296879 0.10186843 291.9906649 0.1241985 C292.5531649 2.0616985 292.5531649 2.0616985 292.9906649 4.1241985 C291.9906649 5.1241985 291.9906649 5.1241985 289.9813298 5.24839699 C288.64224605 5.24782741 288.64224605 5.24782741 287.27611011 5.24724633 C285.73694609 5.2502329 285.73694609 5.2502329 284.16668785 5.25327981 C283.02566189 5.25036696 281.88463593 5.24745412 280.70903343 5.24445301 C279.50761461 5.24530744 278.30619579 5.24616186 277.06837034 5.24704218 C273.71854544 5.24841039 270.36877825 5.24526283 267.0189603 5.24026412 C263.41226386 5.23596299 259.80556935 5.2374058 256.19887108 5.23816639 C249.94502089 5.23869184 243.6911811 5.23554285 237.43733352 5.22992855 C228.3952165 5.22181639 219.35310453 5.21919863 210.31098426 5.21794056 C195.64227795 5.21574959 180.97357718 5.2090883 166.30487388 5.19963795 C152.05194448 5.19046499 137.79901658 5.18338359 123.54608482 5.17913014 C122.66817084 5.17886741 121.79025687 5.17860469 120.88573944 5.17833401 C116.48169313 5.17702901 112.07764682 5.17576529 107.67360049 5.1745221 C71.11261805 5.16414809 34.5516419 5.14652856 -2.0093351 5.1241985 C-2.5718351 3.1866985 -2.5718351 3.1866985 -3.0093351 1.1241985 C-2.0093351 0.1241985 -2.0093351 0.1241985 0 0 Z " fill="#010101" transform="translate(50.00933510065079,116.8758015036583)"/>
<path d="M0 0 C2.06087928 -0.00968572 4.12075173 -0.0407264 6.18139648 -0.07226562 C20.41244263 -0.12815584 20.41244263 -0.12815584 26.19116211 4.92382812 C26.87758789 5.79201172 26.87758789 5.79201172 27.57788086 6.67773438 C28.04838867 7.25394531 28.51889648 7.83015625 29.00366211 8.42382812 C32.77119581 13.84767695 33.14702514 18.73585873 32.26538086 25.24023438 C30.20900408 30.36418147 26.93613029 34.27829571 22.26538086 37.24023438 C15.657554 39.83411932 9.39923295 39.57081707 2.39038086 39.55273438 C0.52833008 39.5769043 0.52833008 39.5769043 -1.37133789 39.6015625 C-15.68562561 39.60918459 -15.68562561 39.60918459 -21.75805664 34.55664062 C-22.20407227 33.97785156 -22.65008789 33.3990625 -23.10961914 32.80273438 C-23.8018457 31.93841797 -23.8018457 31.93841797 -24.50805664 31.05664062 C-28.20368193 25.58381973 -28.61084398 20.7622378 -27.73461914 14.24023438 C-25.51539903 8.58265177 -21.63834064 4.68327287 -16.73461914 1.24023438 C-11.4543319 -0.60388421 -5.51491962 0.01568038 0 0 Z M-19.10961914 15.05273438 C-20.11294325 18.56436876 -19.81126314 21.80587629 -18.73461914 25.24023438 C-16.54204105 27.88257207 -14.80122296 29.70693247 -11.73461914 31.24023438 C-7.157089 31.54008162 -2.57080292 31.51840665 2.01538086 31.55273438 C3.92963867 31.59624023 3.92963867 31.59624023 5.88256836 31.640625 C14.9220625 31.82879663 14.9220625 31.82879663 22.26538086 27.24023438 C24.8518255 23.83083007 24.63041201 20.40158948 24.26538086 16.24023438 C22.58053983 12.53358411 20.74552592 10.3285417 17.26538086 8.24023438 C12.99301565 7.66680729 8.72893755 7.72505158 4.42089844 7.73925781 C2.33705382 7.7402301 0.25689705 7.6985965 -1.82641602 7.65429688 C-3.14577148 7.65171875 -4.46512695 7.64914063 -5.82446289 7.64648438 C-7.02965576 7.63939453 -8.23484863 7.63230469 -9.4765625 7.625 C-14.26067136 8.52840609 -16.26620687 11.30460001 -19.10961914 15.05273438 Z " fill="#DD1C0E" transform="translate(71.734619140625,52.759765625)"/>
<path d="M0 0 C1.93359375 0.00966797 1.93359375 0.00966797 3.90625 0.01953125 C5.25260692 0.03623787 6.59896109 0.05316771 7.9453125 0.0703125 C9.31509767 0.08035586 10.68488992 0.08947933 12.0546875 0.09765625 C15.39341006 0.12116838 18.73177011 0.1540332 22.0703125 0.1953125 C20.3203125 5.9453125 20.3203125 5.9453125 18.0703125 8.1953125 C15.61181641 8.48242188 15.61181641 8.48242188 12.546875 8.5390625 C11.4434375 8.56871094 10.34 8.59835938 9.203125 8.62890625 C8.04554688 8.65082031 6.88796875 8.67273437 5.6953125 8.6953125 C3.41648532 8.73874306 1.13779752 8.79048591 -1.140625 8.8515625 C-2.15431152 8.87025391 -3.16799805 8.88894531 -4.21240234 8.90820312 C-7.05575932 9.2086333 -8.60240875 9.5495984 -10.9296875 11.1953125 C-12.4146875 13.6703125 -12.4146875 13.6703125 -13.9296875 16.1953125 C-2.7096875 16.1953125 8.5103125 16.1953125 20.0703125 16.1953125 C18.0703125 21.1953125 18.0703125 21.1953125 16.0703125 24.1953125 C13.18115234 24.53588867 13.18115234 24.53588867 9.53125 24.48828125 C7.57832031 24.4737793 7.57832031 24.4737793 5.5859375 24.45898438 C4.20572327 24.43391638 2.82551494 24.40852152 1.4453125 24.3828125 C0.05730587 24.36776767 -1.33071617 24.35407891 -2.71875 24.34179688 C-6.12278259 24.3063382 -9.52604372 24.25691548 -12.9296875 24.1953125 C-11.99836287 26.52362407 -11.29101357 27.93365899 -9.23925781 29.41943359 C-6.10944154 30.47086659 -3.27612751 30.52548775 0.0234375 30.609375 C0.68365906 30.62874115 1.34388062 30.6481073 2.02410889 30.6680603 C4.12271403 30.72760599 6.22137478 30.77413972 8.3203125 30.8203125 C9.7474191 30.85851544 11.17450322 30.89756852 12.6015625 30.9375 C16.09093941 31.0332858 19.58048536 31.11740892 23.0703125 31.1953125 C21.94579523 34.167251 20.84737459 36.52971937 19.0703125 39.1953125 C16.47583008 39.58349609 16.47583008 39.58349609 13.21484375 39.59375 C11.44463867 39.59955078 11.44463867 39.59955078 9.63867188 39.60546875 C8.39923828 39.59386719 7.15980469 39.58226562 5.8828125 39.5703125 C4.05266602 39.58771484 4.05266602 39.58771484 2.18554688 39.60546875 C-5.20395072 39.58138565 -11.0392781 39.52543982 -16.85546875 34.546875 C-21.30837642 29.00269136 -23.43467957 24.76563945 -23.2421875 17.53515625 C-22.52759922 12.18467651 -20.0446873 7.91131232 -16.0546875 4.3203125 C-10.80051123 0.74747264 -6.29358876 -0.05569548 0 0 Z " fill="#E01F10" transform="translate(311.9296875,52.8046875)"/>
<path d="M0 0 C8.1984375 -0.0928125 8.1984375 -0.0928125 16.5625 -0.1875 C19.12946655 -0.22846802 19.12946655 -0.22846802 21.74829102 -0.27026367 C23.12515561 -0.27903653 24.50202807 -0.28667857 25.87890625 -0.29296875 C26.92637024 -0.3159906 26.92637024 -0.3159906 27.99499512 -0.33947754 C33.13351469 -0.34217965 36.50782916 0.70244771 41 3 C44.02220236 6.06007457 44.93003096 9.42025652 45.4375 13.625 C44.80366575 18.51457849 43.21762686 20.87850158 39.625 24.1875 C37.11803575 25.91849913 34.83126457 26.92525576 32 28 C32.7940625 28.62648438 33.588125 29.25296875 34.40625 29.8984375 C35.4271875 30.71570313 36.448125 31.53296875 37.5 32.375 C38.5209375 33.18710938 39.541875 33.99921875 40.59375 34.8359375 C41.3878125 35.55007812 42.181875 36.26421875 43 37 C43 37.66 43 38.32 43 39 C38.21686761 39.84042022 34.49084775 39.92270233 30.2734375 37.3125 C27.43370172 34.95560114 24.71960625 32.49422452 22 30 C19.95938506 28.32551798 17.88430379 26.69869377 15.8125 25.0625 C14.16761534 23.75809496 12.54888502 22.41706502 11 21 C11 20.34 11 19.68 11 19 C11.65073486 18.98541748 12.30146973 18.97083496 12.97192383 18.95581055 C15.91938306 18.88135451 18.86570642 18.78468734 21.8125 18.6875 C23.34874023 18.65366211 23.34874023 18.65366211 24.91601562 18.61914062 C26.39038086 18.5659668 26.39038086 18.5659668 27.89453125 18.51171875 C28.80050049 18.48553467 29.70646973 18.45935059 30.63989258 18.43237305 C33.40972066 17.92493894 34.37465905 17.27643081 36 15 C35.75794651 11.68181015 35.75794651 11.68181015 34 9 C32.07521187 8.84193469 30.1450079 8.748865 28.21484375 8.68359375 C27.16159912 8.64548584 26.10835449 8.60737793 25.02319336 8.56811523 C23.67491455 8.52501221 22.32663574 8.48190918 20.9375 8.4375 C14.5334375 8.2209375 14.5334375 8.2209375 8 8 C8 18.23 8 28.46 8 39 C5.36 39 2.72 39 0 39 C0 26.13 0 13.26 0 0 Z " fill="#D82012" transform="translate(107,53)"/>
<path d="M0 0 C5.27838327 2.7944382 9.08864461 6.26593382 11 12 C11.60209983 17.97468289 11.05557132 22.70367637 8 28 C4.93721115 31.20200653 2.82114199 32.76112233 -1.4375 34 C-5.81334276 34 -8.13490066 32.97198946 -12 31 C-12.33 34.63 -12.66 38.26 -13 42 C-15.97 42 -18.94 42 -22 42 C-22 28.47 -22 14.94 -22 1 C-19.03 1 -16.06 1 -13 1 C-12.67 1.66 -12.34 2.32 -12 3 C-11.319375 2.505 -10.63875 2.01 -9.9375 1.5 C-6.25859625 -0.37858915 -4.0908775 -0.50238846 0 0 Z M-13 14 C-13.72222637 17.85187398 -13.30285153 19.46418575 -11.375 22.875 C-9.14293641 25.24132285 -9.14293641 25.24132285 -6 25.5625 C-2.96995912 25.18537072 -2.96995912 25.18537072 -0.625 23.5 C1.65133288 19.99794942 1.82500224 17.06667773 1 13 C-0.9427206 10.12189541 -2.06526229 9.2157087 -5.4375 8.4375 C-9.22174087 9.26818702 -10.68262395 10.95430577 -13 14 Z " fill="#010101" transform="translate(159,147)"/>
<path d="M0 0 C2.27963491 2.7332708 4.16205838 5.6826508 6.0625 8.6875 C6.57876953 9.47833984 7.09503906 10.26917969 7.62695312 11.08398438 C9.89156316 14.57754202 12.08612021 18.09516446 14.13671875 21.71875 C16.45983992 25.80978099 19.02827212 29.71322959 21.609375 33.64453125 C23 36 23 36 23 38 C21.58720294 38.16301505 20.16891872 38.2788797 18.75 38.375 C17.56664062 38.47941406 17.56664062 38.47941406 16.359375 38.5859375 C15.19148438 38.29589844 15.19148438 38.29589844 14 38 C13.44957031 37.01386719 12.89914063 36.02773437 12.33203125 35.01171875 C10.39349921 31.85684931 10.39349921 31.85684931 7.86181641 31.49316406 C5.20772905 31.36469904 2.59371274 31.36387363 -0.0625 31.4375 C-6.99957942 31.59951247 -6.99957942 31.59951247 -10 31 C-11.99609375 28.47265625 -11.99609375 28.47265625 -13 26 C-13.66 26 -14.32 26 -15 26 C-16.03755118 27.98077953 -17.02995879 29.98529902 -18 32 C-21.19892724 37.76212687 -21.19892724 37.76212687 -24.68359375 38.796875 C-27.21739778 38.75374642 -29.52588244 38.53763521 -32 38 C-30.37266584 33.23819833 -27.76170717 29.34691491 -25 25.1875 C-21.99809175 20.62900977 -19.01679791 16.06908495 -16.19140625 11.3984375 C-15.74861328 10.66987549 -15.30582031 9.94131348 -14.84960938 9.19067383 C-14.00823845 7.79950723 -13.17455042 6.40365728 -12.34960938 5.00268555 C-10.79967574 2.45333222 -9.37719531 0.29951548 -7.02734375 -1.56640625 C-3.85869704 -2.2440937 -2.766546 -1.75529739 0 0 Z M-5 9 C-6.39925107 11.12697995 -7.74333193 13.2616701 -9.0625 15.4375 C-9.43955078 16.04916016 -9.81660156 16.66082031 -10.20507812 17.29101562 C-12.15008245 19.96302351 -12.15008245 19.96302351 -13 23 C-7.39 23 -1.78 23 4 23 C2.48136819 19.20342047 1.16986512 16.49491074 -1.0625 13.1875 C-1.58972656 12.39730469 -2.11695313 11.60710937 -2.66015625 10.79296875 C-3.32337891 9.90544922 -3.32337891 9.90544922 -4 9 C-4.33 9 -4.66 9 -5 9 Z " fill="#E22011" transform="translate(183,54)"/>
<path d="M0 0 C0.66022156 0.00141495 1.32044312 0.0028299 2.00067139 0.00428772 C4.09945294 0.0098638 6.19812595 0.02241178 8.296875 0.03515625 C9.72395679 0.04017435 11.15104025 0.04473671 12.578125 0.04882812 C16.06774332 0.05982537 19.55729856 0.07707345 23.046875 0.09765625 C21.71354167 2.76432292 20.38020833 5.43098958 19.046875 8.09765625 C17.89687012 8.13524048 17.89687012 8.13524048 16.72363281 8.17358398 C13.24788217 8.28967048 9.77239408 8.41233991 6.296875 8.53515625 C5.0903125 8.57447266 3.88375 8.61378906 2.640625 8.65429688 C1.48046875 8.69619141 0.3203125 8.73808594 -0.875 8.78125 C-1.94331055 8.81790771 -3.01162109 8.85456543 -4.11230469 8.89233398 C-6.56089533 9.06930758 -8.64996137 9.25902592 -10.953125 10.09765625 C-12.83832083 13.57038542 -13.71239524 17.16573685 -13.953125 21.09765625 C-12.38769873 25.29958991 -10.82478436 27.83565922 -6.953125 30.09765625 C-3.66576672 30.60199396 -3.66576672 30.60199396 0 30.609375 C0.99033234 30.6363018 0.99033234 30.6363018 2.00067139 30.66377258 C4.09934189 30.71774434 6.19778677 30.75172668 8.296875 30.78515625 C9.72398964 30.8183412 11.15107456 30.85283196 12.578125 30.88867188 C16.06749152 30.97346095 19.55693691 31.04033513 23.046875 31.09765625 C21.92235773 34.06959475 20.82393709 36.43206312 19.046875 39.09765625 C16.62011719 39.4699707 16.62011719 39.4699707 13.59375 39.4609375 C11.95212891 39.4599707 11.95212891 39.4599707 10.27734375 39.45898438 C9.12878906 39.44287109 7.98023438 39.42675781 6.796875 39.41015625 C5.66378906 39.41337891 4.53070313 39.41660156 3.36328125 39.41992188 C-4.25092322 39.37082677 -10.32137605 39.02549291 -16.203125 33.72265625 C-16.86828125 33.13742188 -17.5334375 32.5521875 -18.21875 31.94921875 C-22.61811853 27.25259559 -22.4367119 22.58521783 -22.33203125 16.3671875 C-21.59840182 10.03679743 -18.76817025 6.5422841 -13.890625 2.66015625 C-9.12709099 0.12636156 -5.39323032 -0.02285267 0 0 Z " fill="#D31C10" transform="translate(223.953125,52.90234375)"/>
<path d="M0 0 C4.53589561 2.56701785 7.27114292 4.95040701 8.8203125 10.08203125 C8.8203125 13.38203125 8.8203125 16.68203125 8.8203125 20.08203125 C-1.0796875 20.57703125 -1.0796875 20.57703125 -11.1796875 21.08203125 C-11.1796875 21.74203125 -11.1796875 22.40203125 -11.1796875 23.08203125 C-5.34574361 24.18846889 -2.41389537 24.35341117 2.8203125 21.08203125 C4.8828125 22.83203125 4.8828125 22.83203125 6.8203125 25.08203125 C6.8828125 27.14453125 6.8828125 27.14453125 5.8203125 29.08203125 C1.97677716 32.22674198 -2.28048826 33.22200837 -7.1796875 33.08203125 C-11.78688182 32.23333756 -15.19554912 31.01570099 -18.6171875 27.76953125 C-22.31449044 21.41017019 -22.75692768 16.20280679 -21.1796875 9.08203125 C-17.21196895 0.84138503 -8.88325416 -3.74115543 0 0 Z M-11.1796875 9.08203125 C-11.5096875 10.40203125 -11.8396875 11.72203125 -12.1796875 13.08203125 C-8.2196875 13.08203125 -4.2596875 13.08203125 -0.1796875 13.08203125 C-0.8396875 11.43203125 -1.4996875 9.78203125 -2.1796875 8.08203125 C-5.73846171 6.67725196 -8.09492559 6.76845982 -11.1796875 9.08203125 Z " fill="#010101" transform="translate(97.1796875,147.91796875)"/>
<path d="M0 0 C4.62330091 4.86039326 5.36266602 8.92623456 5.27734375 15.4296875 C4.70643537 20.72064121 2.29655301 23.85420897 -1.6875 27.375 C-6.84547561 29.90532766 -11.47829077 30.45390766 -17.125 29.4375 C-21.80399404 27.09800298 -25.70641437 24.13722844 -28.4375 19.625 C-29.50198574 14.65739988 -29.558218 10.64181765 -27.9375 5.875 C-25.21114777 1.82944508 -21.74899502 -2.11734396 -16.98046875 -3.6484375 C-10.3173381 -4.83124176 -5.5286594 -3.72583569 0 0 Z M-19 8 C-19.63158698 10.39639308 -19.63158698 10.39639308 -19.5 13 C-19.5103125 13.86625 -19.520625 14.7325 -19.53125 15.625 C-19.19763062 18.13538998 -19.19763062 18.13538998 -17.15625 19.7890625 C-14.22757671 21.43378844 -12.31138477 21.4139231 -9 21 C-6.76621576 19.86642684 -6.76621576 19.86642684 -5 18 C-4.36841302 15.60360692 -4.36841302 15.60360692 -4.5 13 C-4.4896875 12.13375 -4.479375 11.2675 -4.46875 10.375 C-4.80236938 7.86461002 -4.80236938 7.86461002 -6.84375 6.2109375 C-11.4427326 3.62817553 -15.32059816 4.42973296 -19 8 Z " fill="#010101" transform="translate(200,151)"/>
<path d="M0 0 C3.63 0 7.26 0 11 0 C12.98 5.94 14.96 11.88 17 18 C18.98 12.06 20.96 6.12 23 0 C26.3 0 29.6 0 33 0 C31.9370877 6.2076421 29.63710275 12.02022655 27.49951172 17.91992188 C27.00065498 19.3043712 26.50811089 20.69111175 26.02197266 22.08007812 C25.31490162 24.10028109 24.5893312 26.11296935 23.859375 28.125 C23.43108398 29.32382813 23.00279297 30.52265625 22.56152344 31.7578125 C20.85642532 35.29810377 18.91146943 37.39506381 16 40 C15.505 40.495 15.505 40.495 15 41 C12.8203125 41.203125 12.8203125 41.203125 10.125 41.25 C9.24070312 41.27578125 8.35640625 41.3015625 7.4453125 41.328125 C4.59035628 40.94503183 3.76004103 40.21462117 2 38 C2.99 36.02 3.98 34.04 5 32 C6.98 32 8.96 32 11 32 C9.03087709 24.96593409 6.60481184 18.24598302 3.8125 11.5 C3.08672966 9.7408649 2.36391513 7.98050643 1.64453125 6.21875 C1.32846924 5.45498047 1.01240723 4.69121094 0.68676758 3.90429688 C0 2 0 2 0 0 Z " fill="#010101" transform="translate(265,148)"/>
<path d="M0 0 C3.43326152 1.71663076 5.47355259 2.91177314 7.1640625 6.40625 C8.36692116 11.57741807 8.20966584 16.58664118 8.125 21.875 C8.11597656 22.94492188 8.10695312 24.01484375 8.09765625 25.1171875 C8.07419463 27.74488856 8.03832696 30.37247372 8 33 C4.7 33 1.4 33 -2 33 C-2.495 21.615 -2.495 21.615 -3 10 C-5.31 10.33 -7.62 10.66 -10 11 C-11.17469444 13.34938888 -11.20034889 14.95073205 -11.31640625 17.5703125 C-11.35830078 18.46621094 -11.40019531 19.36210937 -11.44335938 20.28515625 C-11.48267578 21.22230469 -11.52199219 22.15945312 -11.5625 23.125 C-11.60568359 24.06988281 -11.64886719 25.01476562 -11.69335938 25.98828125 C-11.7995894 28.32534172 -11.90031271 30.6626513 -12 33 C-14.97 33 -17.94 33 -21 33 C-22.15530812 30.68938376 -22.12901756 29.35096511 -22.1328125 26.78125 C-22.13474609 25.93530273 -22.13667969 25.08935547 -22.13867188 24.21777344 C-22.13416016 23.3209082 -22.12964844 22.42404297 -22.125 21.5 C-22.12306641 20.59540039 -22.12113281 19.69080078 -22.11914062 18.75878906 C-22.0803791 12.77874712 -21.79112108 6.93340812 -21 1 C-18.03 1 -15.06 1 -12 1 C-11.67 1.66 -11.34 2.32 -11 3 C-10.29875 2.505 -9.5975 2.01 -8.875 1.5 C-5.48475614 -0.26882288 -3.77553457 -0.53936208 0 0 Z " fill="#010101" transform="translate(228,147)"/>
<path d="M0 0 C3.6875 1.3125 3.6875 1.3125 6 3 C6.33 3.99 6.66 4.98 7 6 C6.34 6 5.68 6 5 6 C5 6.66 5 7.32 5 8 C2.49923002 9.62433191 1.41017471 10.07333427 -1.578125 9.5390625 C-2.45984375 9.23742187 -3.3415625 8.93578125 -4.25 8.625 C-5.58804687 8.18027344 -5.58804687 8.18027344 -6.953125 7.7265625 C-7.62859375 7.48679688 -8.3040625 7.24703125 -9 7 C-8.67 7.99 -8.34 8.98 -8 10 C-6.05909251 10.69787865 -6.05909251 10.69787865 -3.75 11 C0.05665792 11.73228237 2.85673466 12.61873838 6 15 C8.4915904 18.7373856 8.45793285 20.57331583 8 25 C5.8074965 28.52366634 3.84145884 30.4979763 0 32 C-6.57570016 32.65417172 -13.51080366 33.15398642 -19 29 C-20.375 26.8125 -20.375 26.8125 -21 25 C-19.25 22.9375 -19.25 22.9375 -17 21 C-13.92564622 21.18632447 -12.62628904 22.24914064 -10 24 C-7.66800612 24.07905064 -5.33167378 24.08798769 -3 24 C-2.67 23.01 -2.34 22.02 -2 21 C-3.10408203 20.83564453 -3.10408203 20.83564453 -4.23046875 20.66796875 C-15.89681509 18.77238011 -15.89681509 18.77238011 -19.375 14.1875 C-20.27470027 11.03854906 -19.95829149 9.13041888 -19 6 C-13.19959978 -0.69276948 -8.53165211 -0.63403412 0 0 Z " fill="#010101" transform="translate(316,148)"/>
<path d="M0 0 C-1.65 1.98 -3.3 3.96 -5 6 C-5.886875 5.67 -6.77375 5.34 -7.6875 5 C-10.70923347 4.08777857 -12.88373706 3.81669042 -16 4 C-16.33 4.66 -16.66 5.32 -17 6 C-16.27554688 6.08636719 -15.55109375 6.17273438 -14.8046875 6.26171875 C-8.40478306 7.1918382 -4.2994394 8.02170175 0 13 C1.125 15.9375 1.125 15.9375 1 19 C-1.27466713 23.46184707 -3.54504718 25.80104036 -8 28 C-15.39043129 29.13553362 -21.54408703 28.6348912 -27.70703125 24.2890625 C-28.13371094 23.86367187 -28.56039062 23.43828125 -29 23 C-29 22.34 -29 21.68 -29 21 C-28.34 21 -27.68 21 -27 21 C-27 20.34 -27 19.68 -27 19 C-24.75 17.8125 -24.75 17.8125 -22 17 C-20.65599167 17.98560611 -19.32392972 18.98758315 -18 20 C-14.33285151 20.25063732 -14.33285151 20.25063732 -11 20 C-10.67 19.01 -10.34 18.02 -10 17 C-10.99580078 16.83564453 -10.99580078 16.83564453 -12.01171875 16.66796875 C-21.1179771 15.03283039 -21.1179771 15.03283039 -25 12 C-27.36086122 8.45870816 -27.57269578 7.17249782 -27 3 C-24.58006981 -0.93238656 -22.69002343 -3.11471269 -18.25 -4.5 C-11.66040425 -5.73321357 -5.40660301 -3.83694407 0 0 Z " fill="#010101" transform="translate(266,152)"/>
<path d="M0 0 C1.625 0.828125 1.625 0.828125 3.875 2.328125 C3.875 6.328125 3.875 6.328125 2.375 8.078125 C1.88 8.490625 1.385 8.903125 0.875 9.328125 C-0.1975 8.998125 -1.27 8.668125 -2.375 8.328125 C-6.12231601 7.1563499 -6.12231601 7.1563499 -10.125 7.328125 C-10.125 7.988125 -10.125 8.648125 -10.125 9.328125 C-9.53332031 9.43769531 -8.94164063 9.54726562 -8.33203125 9.66015625 C-2.24710786 10.88111151 2.27292373 11.92501059 5.875 17.328125 C6.33181807 21.43948765 6.33231782 23.59314993 4.125 27.140625 C0.10752787 31.04650068 -2.92592093 31.62113521 -8.5 31.640625 C-13.40883256 31.55798472 -17.08566717 31.38491741 -21.125 28.328125 C-22.5 26.140625 -22.5 26.140625 -23.125 24.328125 C-21.475 23.008125 -19.825 21.688125 -18.125 20.328125 C-13.25 22.203125 -13.25 22.203125 -12.125 23.328125 C-9.79202567 23.36905437 -7.45794775 23.37054223 -5.125 23.328125 C-4.795 22.338125 -4.465 21.348125 -4.125 20.328125 C-5.22908203 20.16376953 -5.22908203 20.16376953 -6.35546875 19.99609375 C-16.31231869 18.37827005 -16.31231869 18.37827005 -20.125 15.328125 C-21.73347182 12.11118136 -21.73809149 8.80675278 -21.125 5.328125 C-15.70089483 -1.38063666 -8.25605222 -2.61036945 0 0 Z " fill="#010101" transform="translate(129.125,148.671875)"/>
<path d="M0 0 C2.64 0 5.28 0 8 0 C8 10.23 8 20.46 8 31 C18.89 31 29.78 31 41 31 C39 36 39 36 37 39 C34.48047011 39.27988387 32.20981065 39.37241242 29.69140625 39.328125 C28.96888168 39.32625183 28.24635712 39.32437866 27.50193787 39.32244873 C25.97284334 39.31572258 24.44376619 39.30179681 22.91479492 39.28125 C20.57519519 39.25016865 18.23626985 39.24028666 15.89648438 39.234375 C14.41145013 39.22520175 12.92642274 39.21482496 11.44140625 39.203125 C10.7413295 39.19887512 10.04125275 39.19462524 9.31996155 39.19024658 C6.28000848 39.14558855 3.90704044 38.96901348 1 38 C-0.58645357 34.82709287 -0.12078213 31.41174616 -0.09765625 27.9296875 C-0.0962413 27.13345978 -0.09482635 26.33723206 -0.09336853 25.51687622 C-0.08776345 22.9695462 -0.07521014 20.42230353 -0.0625 17.875 C-0.05748565 16.14974085 -0.05292263 14.42448033 -0.04882812 12.69921875 C-0.03779237 8.46611209 -0.02052436 4.23307086 0 0 Z " fill="#E01E0D" transform="translate(250,53)"/>
<path d="M0 0 C0.94552734 0.16242188 0.94552734 0.16242188 1.91015625 0.328125 C2.57015625 1.318125 3.23015625 2.308125 3.91015625 3.328125 C4.46703125 2.833125 5.02390625 2.338125 5.59765625 1.828125 C7.91015625 0.328125 7.91015625 0.328125 12.91015625 0.328125 C12.91015625 3.628125 12.91015625 6.928125 12.91015625 10.328125 C11.15234375 10.97916667 9.39453125 11.63020833 7.63671875 12.28125 C5.26662715 13.71831911 4.80202172 14.68683111 3.91015625 17.328125 C3.61493685 20.10207333 3.40303394 22.7981761 3.28515625 25.578125 C3.22714844 26.69574219 3.22714844 26.69574219 3.16796875 27.8359375 C3.07410517 29.6662774 2.99105907 31.49716643 2.91015625 33.328125 C-0.38984375 33.328125 -3.68984375 33.328125 -7.08984375 33.328125 C-7.11449767 28.78914795 -7.13268164 24.25020957 -7.14477539 19.71118164 C-7.14981515 18.16592734 -7.15664695 16.62067784 -7.1652832 15.07543945 C-7.17736451 12.85887471 -7.18307548 10.64237282 -7.1875 8.42578125 C-7.19266129 7.7309816 -7.19782257 7.03618195 -7.20314026 6.32032776 C-7.20333652 4.6558317 -7.15173504 2.99147001 -7.08984375 1.328125 C-5.19856033 -0.56315842 -2.51916649 0.0914398 0 0 Z " fill="#000000" transform="translate(63.08984375,146.671875)"/>
<path d="M0 0 C0.33 0.66 0.66 1.32 1 2 C-0.65 3.32 -2.3 4.64 -4 6 C-3.4225 5.855625 -2.845 5.71125 -2.25 5.5625 C-1.13625 5.2840625 -1.13625 5.2840625 0 5 C0.56299805 4.8254126 1.12599609 4.6508252 1.70605469 4.47094727 C4.81665548 3.83234053 7.77842081 3.88889161 10.953125 3.90234375 C11.61334656 3.9037587 12.27356812 3.90517365 12.95379639 3.90663147 C15.05257794 3.91220755 17.15125095 3.92475553 19.25 3.9375 C20.67708179 3.9425181 22.10416525 3.94708046 23.53125 3.95117188 C27.02086832 3.96216912 30.51042356 3.9794172 34 4 C34 4.66 34 5.32 34 6 C33.14768799 6.00410889 32.29537598 6.00821777 31.41723633 6.01245117 C28.23904652 6.0395042 25.06216708 6.0886643 21.88452148 6.15258789 C20.51224569 6.17570978 19.13979391 6.19015003 17.76733398 6.19555664 C15.78865529 6.20488665 13.81023376 6.24857019 11.83203125 6.29296875 C10.64327393 6.3086792 9.4545166 6.32438965 8.22973633 6.34057617 C4.10520514 7.18269264 2.6138732 8.76829678 0 12 C-1.00907926 14.82530937 -1.00907926 14.82530937 -1.3125 17.75 C-1.45300781 18.71421875 -1.59351563 19.6784375 -1.73828125 20.671875 C-1.93129743 22.33245476 -1.93129743 22.33245476 -2 24 C-0.85965992 25.05016013 0.31256404 26.06590196 1.5 27.0625 C2.1496875 27.61035156 2.799375 28.15820312 3.46875 28.72265625 C3.9740625 29.14417969 4.479375 29.56570312 5 30 C4.33333333 31.33333333 3.66666667 32.66666667 3 34 C13.23 34.33 23.46 34.66 34 35 C34 35.66 34 36.32 34 37 C29.50012438 37.08767743 25.000471 37.14062009 20.5 37.1875 C19.2315625 37.21263672 17.963125 37.23777344 16.65625 37.26367188 C2.05952012 37.37770883 2.05952012 37.37770883 -4.0234375 32.31640625 C-4.46945313 31.73761719 -4.91546875 31.15882812 -5.375 30.5625 C-6.06722656 29.69818359 -6.06722656 29.69818359 -6.7734375 28.81640625 C-10.46665118 23.34715669 -10.88354401 18.51839104 -10 12 C-7.90724613 6.78541082 -4.63064596 3.17530009 0 0 Z " fill="#CB180F" transform="translate(54,55)"/>
<path d="M0 0 C15.84 0.495 15.84 0.495 32 1 C32 1.99 32 2.98 32 4 C32.99 4.33 33.98 4.66 35 5 C21.635 5.495 21.635 5.495 8 6 C7.67 16.56 7.34 27.12 7 38 C5.02 38 3.04 38 1 38 C0 37 0 37 -0.11352539 33.48999023 C-0.11336626 31.92951578 -0.10767142 30.36903607 -0.09765625 28.80859375 C-0.0962413 27.98875504 -0.09482635 27.16891632 -0.09336853 26.32423401 C-0.08775289 23.69528618 -0.07519779 21.06642227 -0.0625 18.4375 C-0.05748701 16.65950643 -0.05292376 14.88151154 -0.04882812 13.10351562 C-0.03862752 8.73561842 -0.01905532 4.3679036 0 0 Z " fill="#E52111" transform="translate(108,54)"/>
<path d="M0 0 C0.33 0.66 0.66 1.32 1 2 C0.06421005 4.35981813 -0.93347808 6.69631264 -2 9 C-2.66 9 -3.32 9 -4 9 C-5.74849671 13.3039919 -7.3770361 17.64750591 -9 22 C-7.00016466 21.20882096 -7.00016466 21.20882096 -5 20 C-4.67 19.01 -4.34 18.02 -4 17 C-3.34 17 -2.68 17 -2 17 C-1.7525 16.29875 -1.505 15.5975 -1.25 14.875 C0.16088026 11.62997541 1.97895398 8.89683263 4 6 C6.3125 6.125 6.3125 6.125 9 7 C10.875 9.875 10.875 9.875 12 13 C11.67 13.99 11.34 14.98 11 16 C9.35 13.36 7.7 10.72 6 8 C4.85252535 9.62384142 3.7070709 11.24911056 2.5625 12.875 C1.92441406 13.77992187 1.28632813 14.68484375 0.62890625 15.6171875 C-0.99518138 17.87738581 -0.99518138 17.87738581 -2 20 C3.61 20 9.22 20 15 20 C15 20.66 15 21.32 15 22 C10.05 22.33 5.1 22.66 0 23 C0 24.32 0 25.64 0 27 C6.6 27 13.2 27 20 27 C20 27.33 20 27.66 20 28 C13.07 28 6.14 28 -1 28 C-1.66 26.68 -2.32 25.36 -3 24 C-3.66 24 -4.32 24 -5 24 C-6.03755118 25.98077953 -7.02995879 27.98529902 -8 30 C-11.19892724 35.76212687 -11.19892724 35.76212687 -14.68359375 36.796875 C-17.21739778 36.75374642 -19.52588244 36.53763521 -22 36 C-20.36208721 31.19857566 -17.71592031 27.26023279 -14.9375 23.0625 C-13.9502886 21.55483954 -12.96331339 20.0470244 -11.9765625 18.5390625 C-11.4805957 17.78399414 -10.98462891 17.02892578 -10.47363281 16.25097656 C-8.23195033 12.82680285 -6.02143096 9.3828568 -3.8125 5.9375 C-3.06905933 4.7799165 -2.32557482 3.62236115 -1.58203125 2.46484375 C-1.05996094 1.65144531 -0.53789062 0.83804688 0 0 Z " fill="#D01C11" transform="translate(173,56)"/>
<path d="M0 0 C2.64 0 5.28 0 8 0 C8 10.23 8 20.46 8 31 C18.89 31 29.78 31 41 31 C40.67 31.66 40.34 32.32 40 33 C29.11 32.67 18.22 32.34 7 32 C6.67 30.35 6.34 28.7 6 27 C5.06934867 29.60582371 4.85082593 30.64198224 5.9375 33.25 C6.4634375 34.11625 6.4634375 34.11625 7 35 C5.68 35 4.36 35 3 35 C3 35.99 3 36.98 3 38 C2.34 38 1.68 38 1 38 C-0.58645357 34.82709287 -0.12078213 31.41174616 -0.09765625 27.9296875 C-0.0962413 27.13345978 -0.09482635 26.33723206 -0.09336853 25.51687622 C-0.08776345 22.9695462 -0.07521014 20.42230353 -0.0625 17.875 C-0.05748565 16.14974085 -0.05292263 14.42448033 -0.04882812 12.69921875 C-0.03779237 8.46611209 -0.02052436 4.23307086 0 0 Z " fill="#E31F10" transform="translate(250,53)"/>
<path d="M0 0 C8.1984375 -0.0928125 8.1984375 -0.0928125 16.5625 -0.1875 C19.12946655 -0.22846802 19.12946655 -0.22846802 21.74829102 -0.27026367 C23.12515561 -0.27903653 24.50202807 -0.28667857 25.87890625 -0.29296875 C26.92637024 -0.3159906 26.92637024 -0.3159906 27.99499512 -0.33947754 C33.13351469 -0.34217965 36.50782916 0.70244771 41 3 C44.16573627 6.20540715 44.96873281 9.50754168 45.25 13.9375 C45.1675 14.948125 45.085 15.95875 45 17 C44.67 17 44.34 17 44 17 C43.34 14.03 42.68 11.06 42 8 C41.01 8.33 40.02 8.66 39 9 C38.34 8.67 37.68 8.34 37 8 C34.89471067 7.91456105 32.78668843 7.89285275 30.6796875 7.90234375 C28.79443359 7.90717773 28.79443359 7.90717773 26.87109375 7.91210938 C25.55238281 7.92048828 24.23367187 7.92886719 22.875 7.9375 C21.53515789 7.94251511 20.195314 7.94707799 18.85546875 7.95117188 C15.57026794 7.96298914 12.28515603 7.97946383 9 8 C8.67 7.34 8.34 6.68 8 6 C20.375 5.505 20.375 5.505 33 5 C33 4.01 33 3.02 33 2 C22.77 2 12.54 2 2 2 C2 14.21 2 26.42 2 39 C1.34 39 0.68 39 0 39 C0 26.13 0 13.26 0 0 Z " fill="#BE2319" transform="translate(107,53)"/>
<path d="M0 0 C1.32 0 2.64 0 4 0 C3.67 0.99 3.34 1.98 3 3 C2.34 3 1.68 3 1 3 C1 3.66 1 4.32 1 5 C0.34 5 -0.32 5 -1 5 C-1.33 6.98 -1.66 8.96 -2 11 C-6.2126945 11.81788385 -10.06671464 12.07666435 -14.3515625 11.9140625 C-16.12273437 11.84832031 -16.12273437 11.84832031 -17.9296875 11.78125 C-19.14914063 11.7296875 -20.36859375 11.678125 -21.625 11.625 C-22.8521875 11.58117187 -24.079375 11.53734375 -25.34375 11.4921875 C-36.32131466 11.05981077 -36.32131466 11.05981077 -39 10 C-39.33 9.01 -39.66 8.02 -40 7 C-36.54086979 5.8469566 -33.71421153 5.80662077 -30.06640625 5.71875 C-29.39206039 5.70034058 -28.71771454 5.68193115 -28.02293396 5.66296387 C-25.8695432 5.60430932 -23.71607386 5.55146452 -21.5625 5.5 C-18.73030847 5.43215169 -15.8983565 5.3584518 -13.06640625 5.28125 C-11.80771729 5.25095703 -10.54902832 5.22066406 -9.25219727 5.18945312 C-5.54058 4.97536792 -5.54058 4.97536792 -2 4 C-0.71563266 2.0162233 -0.71563266 2.0162233 0 0 Z " fill="#E11F10" transform="translate(96,79)"/>
<path d="M0 0 C4.58982793 -0.04964866 9.17949754 -0.08583672 13.76953125 -0.10986328 C15.32912929 -0.11988557 16.8887087 -0.13350705 18.44824219 -0.15087891 C20.69731254 -0.1752941 22.94613322 -0.1865209 25.1953125 -0.1953125 C25.8861795 -0.20563507 26.57704651 -0.21595764 27.28884888 -0.22659302 C33.03176111 -0.227907 37.22313143 0.81542095 42 4 C41.67 5.98 41.34 7.96 41 10 C40.4225 9.525625 39.845 9.05125 39.25 8.5625 C37.07417916 7.0515133 35.57397552 6.45963849 33 6 C33 5.34 33 4.68 33 4 C28.81870875 4.09389298 24.63795964 4.20006401 20.45727539 4.31738281 C19.0364627 4.35555149 17.61555737 4.39042513 16.19458008 4.421875 C14.14631145 4.46779065 12.09867392 4.52573805 10.05078125 4.5859375 C8.82012939 4.6173584 7.58947754 4.6487793 6.3215332 4.68115234 C3.13107071 4.98741798 0.91350425 5.74319424 -2 7 C-4.3125 6.625 -4.3125 6.625 -6 6 C-4.71034824 4.62437146 -3.37310707 3.29233607 -2 2 C-1.34 2 -0.68 2 0 2 C0 1.34 0 0.68 0 0 Z " fill="#E62113" transform="translate(55,55)"/>
<path d="M0 0 C1.98 0 3.96 0 6 0 C8.475 4.455 8.475 4.455 11 9 C10.34 9.66 9.68 10.32 9 11 C8.30251417 12.31747324 7.63040043 13.64914193 7 15 C6.67 14.67 6.34 14.34 6 14 C4.51361008 13.84344973 3.02050873 13.74933057 1.52734375 13.68359375 C0.17866211 13.62075195 0.17866211 13.62075195 -1.19726562 13.55664062 C-2.14279297 13.51732422 -3.08832031 13.47800781 -4.0625 13.4375 C-5.01189453 13.39431641 -5.96128906 13.35113281 -6.93945312 13.30664062 C-9.29281353 13.20020724 -11.64628354 13.09818992 -14 13 C-14.33 10.69 -14.66 8.38 -15 6 C-12.72923158 5.97300275 -10.45837179 5.95360547 -8.1875 5.9375 C-6.92292969 5.92589844 -5.65835938 5.91429688 -4.35546875 5.90234375 C-1 6 -1 6 2 7 C1.34414811 3.39007621 1.34414811 3.39007621 0 0 Z " fill="#D82416" transform="translate(187,72)"/>
<path d="M0 0 C3.07275391 -0.34057617 3.07275391 -0.34057617 6.9765625 -0.29296875 C7.66181 -0.28872391 8.3470575 -0.28447906 9.05307007 -0.28010559 C11.24411129 -0.26329753 13.43423632 -0.22564405 15.625 -0.1875 C17.10936173 -0.17245579 18.59373785 -0.15876693 20.078125 -0.14648438 C23.71904833 -0.1133879 27.35943478 -0.06159207 31 0 C31 0.99 31 1.98 31 3 C30.01 3 29.02 3 28 3 C28 3.66 28 4.32 28 5 C23.93756043 5.05819473 19.87522854 5.09366215 15.8125 5.125 C14.66201172 5.14175781 13.51152344 5.15851563 12.32617188 5.17578125 C11.21435547 5.18222656 10.10253906 5.18867187 8.95703125 5.1953125 C7.42526245 5.21102295 7.42526245 5.21102295 5.86254883 5.22705078 C2.87387833 4.98999632 0.70576631 4.25617102 -2 3 C-1.34 2.01 -0.68 1.02 0 0 Z " fill="#E62212" transform="translate(214,85)"/>
<path d="M0 0 C8.25 0 16.5 0 25 0 C23 5 23 5 21 8 C18.11083984 8.34057617 18.11083984 8.34057617 14.4609375 8.29296875 C12.50800781 8.2784668 12.50800781 8.2784668 10.515625 8.26367188 C9.13541077 8.23860388 7.75520244 8.21320902 6.375 8.1875 C4.98699337 8.17245517 3.59897133 8.15876641 2.2109375 8.14648438 C-1.19309509 8.1110257 -4.59635622 8.06160298 -8 8 C-8.33 7.34 -8.66 6.68 -9 6 C-8.42556152 5.97494385 -7.85112305 5.9498877 -7.25927734 5.92407227 C-4.63100279 5.80730125 -2.00301605 5.68494581 0.625 5.5625 C1.52863281 5.52318359 2.43226563 5.48386719 3.36328125 5.44335938 C7.98216146 5.22421542 12.45153636 4.8991149 17 4 C17 3.34 17 2.68 17 2 C15.94039063 2.02320312 14.88078125 2.04640625 13.7890625 2.0703125 C12.4010487 2.08906944 11.0130273 2.10726972 9.625 2.125 C8.57699219 2.15013672 8.57699219 2.15013672 7.5078125 2.17578125 C5.67102514 2.19344267 3.83398037 2.10303261 2 2 C1.34 1.34 0.68 0.68 0 0 Z " fill="#C5271A" transform="translate(307,69)"/>
<path d="M0 0 C0.66022156 0.0028299 1.32044312 0.00565979 2.00067139 0.00857544 C4.09959397 0.01972835 6.19808242 0.04482304 8.296875 0.0703125 C9.72395215 0.08034866 11.15103602 0.0894734 12.578125 0.09765625 C16.06784828 0.11965139 19.55731923 0.15414714 23.046875 0.1953125 C21.71354167 2.86197917 20.38020833 5.52864583 19.046875 8.1953125 C10.796875 8.1953125 2.546875 8.1953125 -5.953125 8.1953125 C-5.953125 7.8653125 -5.953125 7.5353125 -5.953125 7.1953125 C1.636875 6.8653125 9.226875 6.5353125 17.046875 6.1953125 C15.85834645 4.77756412 15.85834645 4.77756412 12.44921875 5.09765625 C10.96090633 5.1043303 9.47261068 5.11629067 7.984375 5.1328125 C6.84645508 5.13958008 6.84645508 5.13958008 5.68554688 5.14648438 C3.80595629 5.1583057 1.92640601 5.17624172 0.046875 5.1953125 C0.376875 4.5353125 0.706875 3.8753125 1.046875 3.1953125 C-2.913125 2.8653125 -6.873125 2.5353125 -10.953125 2.1953125 C-6.67148008 0.05449004 -4.69529104 -0.0397906 0 0 Z " fill="#B92219" transform="translate(223.953125,52.8046875)"/>
<path d="M0 0 C0.33 0.66 0.66 1.32 1 2 C-0.65 3.32 -2.3 4.64 -4 6 C-3.4225 5.855625 -2.845 5.71125 -2.25 5.5625 C-1.13625 5.2840625 -1.13625 5.2840625 0 5 C0.56299805 4.8254126 1.12599609 4.6508252 1.70605469 4.47094727 C4.81665548 3.83234053 7.77842081 3.88889161 10.953125 3.90234375 C11.61334656 3.9037587 12.27356812 3.90517365 12.95379639 3.90663147 C15.05257794 3.91220755 17.15125095 3.92475553 19.25 3.9375 C20.67708179 3.9425181 22.10416525 3.94708046 23.53125 3.95117188 C27.02086832 3.96216912 30.51042356 3.9794172 34 4 C34 4.66 34 5.32 34 6 C33.14768799 6.00410889 32.29537598 6.00821777 31.41723633 6.01245117 C28.23904652 6.0395042 25.06216708 6.0886643 21.88452148 6.15258789 C20.51224569 6.17570978 19.13979391 6.19015003 17.76733398 6.19555664 C15.78865529 6.20488665 13.81023376 6.24857019 11.83203125 6.29296875 C10.64327393 6.3086792 9.4545166 6.32438965 8.22973633 6.34057617 C4.12171553 7.17932167 2.63146677 8.81136658 0 12 C-0.97510428 13.93547777 -0.97510428 13.93547777 -1.3125 15.8125 C-1.539375 16.864375 -1.76625 17.91625 -2 19 C-2.33 19 -2.66 19 -3 19 C-3 16.36 -3 13.72 -3 11 C-4.98 11.33 -6.96 11.66 -9 12 C-7.72210402 6.03648545 -4.66283606 3.51582826 0 0 Z " fill="#C11D12" transform="translate(54,55)"/>
<path d="M0 0 C8.25 0 16.5 0 25 0 C25.33 1.32 25.66 2.64 26 4 C22.70265354 5.09911549 20.27041255 5.1139456 16.80078125 5.09765625 C15.59228516 5.09443359 14.38378906 5.09121094 13.13867188 5.08789062 C11.2447168 5.07532227 11.2447168 5.07532227 9.3125 5.0625 C7.40114258 5.05573242 7.40114258 5.05573242 5.45117188 5.04882812 C2.30073436 5.03702873 -0.84960949 5.02056597 -4 5 C-3.67 4.01 -3.34 3.02 -3 2 C-1.68 2 -0.36 2 1 2 C0.67 1.34 0.34 0.68 0 0 Z " fill="#E22010" transform="translate(305,85)"/>
<path d="M0 0 C1.93359375 0.00966797 1.93359375 0.00966797 3.90625 0.01953125 C5.25260692 0.03623787 6.59896109 0.05316771 7.9453125 0.0703125 C9.31509767 0.08035586 10.68488992 0.08947933 12.0546875 0.09765625 C15.39341006 0.12116838 18.73177011 0.1540332 22.0703125 0.1953125 C20.3203125 5.9453125 20.3203125 5.9453125 18.0703125 8.1953125 C15.73193359 8.42236328 15.73193359 8.42236328 12.84375 8.390625 C11.296875 8.38095703 11.296875 8.38095703 9.71875 8.37109375 C8.63851563 8.35433594 7.55828125 8.33757813 6.4453125 8.3203125 C5.35734375 8.31128906 4.269375 8.30226563 3.1484375 8.29296875 C0.45551098 8.26934659 -2.23698005 8.23640806 -4.9296875 8.1953125 C-4.9296875 7.5353125 -4.9296875 6.8753125 -4.9296875 6.1953125 C2.6603125 5.8653125 10.2503125 5.5353125 18.0703125 5.1953125 C18.4003125 4.2053125 18.7303125 3.2153125 19.0703125 2.1953125 C14.48648276 2.30513156 9.90347818 2.4357773 5.3203125 2.5703125 C4.01835937 2.60125 2.71640625 2.6321875 1.375 2.6640625 C0.12460937 2.70273437 -1.12578125 2.74140625 -2.4140625 2.78125 C-3.56616211 2.8126709 -4.71826172 2.8440918 -5.90527344 2.87646484 C-8.82526942 3.18430427 -10.44096999 3.72232779 -12.9296875 5.1953125 C-14.59109513 5.87497926 -16.25668791 6.54470155 -17.9296875 7.1953125 C-12.54268298 1.17454275 -7.95322211 -0.0703825 0 0 Z " fill="#B32019" transform="translate(311.9296875,52.8046875)"/>
<path d="M0 0 C2.64 0 5.28 0 8 0 C8 10.23 8 20.46 8 31 C18.89 31 29.78 31 41 31 C40.67 31.66 40.34 32.32 40 33 C29.11 32.67 18.22 32.34 7 32 C6.67 22.43 6.34 12.86 6 3 C4.35 2.67 2.7 2.34 1 2 C1.11911512 6.00203816 1.24341172 10.00388006 1.37231445 14.00561523 C1.41537294 15.3642958 1.45706565 16.72302041 1.49731445 18.08178711 C1.55572893 20.04552303 1.61961803 22.00909364 1.68359375 23.97265625 C1.72025146 25.15093994 1.75690918 26.32922363 1.79467773 27.54321289 C2.0043293 31.07288765 2.4521498 34.50818611 3 38 C2.34 38 1.68 38 1 38 C-0.58645357 34.82709287 -0.12078213 31.41174616 -0.09765625 27.9296875 C-0.0962413 27.13345978 -0.09482635 26.33723206 -0.09336853 25.51687622 C-0.08776345 22.9695462 -0.07521014 20.42230353 -0.0625 17.875 C-0.05748565 16.14974085 -0.05292263 14.42448033 -0.04882812 12.69921875 C-0.03779237 8.46611209 -0.02052436 4.23307086 0 0 Z " fill="#C1251A" transform="translate(250,53)"/>
<path d="M0 0 C2.3125 0.125 2.3125 0.125 5 1 C6.875 3.875 6.875 3.875 8 7 C7.67 7.99 7.34 8.98 7 10 C5.35 7.36 3.7 4.72 2 2 C0.85252535 3.62384142 -0.2929291 5.24911056 -1.4375 6.875 C-2.07558594 7.77992187 -2.71367187 8.68484375 -3.37109375 9.6171875 C-4.99518138 11.87738581 -4.99518138 11.87738581 -6 14 C-0.39 14 5.22 14 11 14 C11 14.66 11 15.32 11 16 C6.05 16.33 1.1 16.66 -4 17 C-4 18.32 -4 19.64 -4 21 C2.6 21 9.2 21 16 21 C16 21.33 16 21.66 16 22 C9.07 22 2.14 22 -5 22 C-5.66 20.68 -6.32 19.36 -7 18 C-7.66 18 -8.32 18 -9 18 C-10.63676257 19.9600281 -10.63676257 19.9600281 -12 22 C-11.39301257 17.87248551 -9.96189209 14.6678852 -8 11 C-7.34 11 -6.68 11 -6 11 C-5.7525 10.29875 -5.505 9.5975 -5.25 8.875 C-3.83911974 5.62997541 -2.02104602 2.89683263 0 0 Z " fill="#BC1A11" transform="translate(177,62)"/>
<path d="M0 0 C9.57 0 19.14 0 29 0 C28.67 1.32 28.34 2.64 28 4 C24.06251542 4.02898816 20.12505821 4.04679464 16.1875 4.0625 C15.06794922 4.07087891 13.94839844 4.07925781 12.79492188 4.08789062 C11.18520508 4.09272461 11.18520508 4.09272461 9.54296875 4.09765625 C8.0583313 4.10551147 8.0583313 4.10551147 6.54370117 4.11352539 C4 4 4 4 1 3 C0.67 2.01 0.34 1.02 0 0 Z " fill="#E72011" transform="translate(302,55)"/>
<path d="M0 0 C0.33 0 0.66 0 1 0 C1 11.88 1 23.76 1 36 C2.32 36 3.64 36 5 36 C4.98952637 35.25838623 4.97905273 34.51677246 4.96826172 33.75268555 C4.92672804 30.39765807 4.90068211 27.04268467 4.875 23.6875 C4.85824219 22.52025391 4.84148437 21.35300781 4.82421875 20.15039062 C4.81777344 19.03212891 4.81132813 17.91386719 4.8046875 16.76171875 C4.79421387 15.73006592 4.78374023 14.69841309 4.77294922 13.63549805 C5 11 5 11 7 8 C7 17.9 7 27.8 7 38 C5.02 38 3.04 38 1 38 C0 37 0 37 -0.11352539 33.48999023 C-0.11336626 31.92951578 -0.10767142 30.36903607 -0.09765625 28.80859375 C-0.0962413 27.98875504 -0.09482635 27.16891632 -0.09336853 26.32423401 C-0.08775289 23.69528618 -0.07519779 21.06642227 -0.0625 18.4375 C-0.05748701 16.65950643 -0.05292376 14.88151154 -0.04882812 13.10351562 C-0.03777839 8.73564455 -0.02050331 4.36783652 0 0 Z " fill="#CE1C10" transform="translate(108,54)"/>
<path d="M0 0 C3.26189156 0.5623951 4.91134848 1.4140505 7 4 C8.54117572 8.62352715 8.64870126 13.17704716 8 18 C5.7984026 20.89683868 4.21405538 22.39297231 1 24 C-3.51227524 24.28208415 -8.02819397 24.31366669 -12.5480957 24.35009766 C-14.05248501 24.36664188 -15.5567962 24.39391251 -17.06079102 24.43212891 C-19.23495041 24.48706208 -21.40727022 24.5087937 -23.58203125 24.5234375 C-25.53459839 24.5531665 -25.53459839 24.5531665 -27.52661133 24.58349609 C-31.82361762 23.86164011 -33.27337025 22.30359912 -36 19 C-36.99 19.66 -37.98 20.32 -39 21 C-38.37240135 18.07120629 -37.41377341 15.63904371 -36 13 C-35.773125 14.11375 -35.54625 15.2275 -35.3125 16.375 C-34.42096704 20.0798978 -34.42096704 20.0798978 -31.81811523 21.20556641 C-26.35192918 22.74649766 -20.70330542 22.36925872 -15.0625 22.375 C-13.79986328 22.39949219 -12.53722656 22.42398438 -11.23632812 22.44921875 C-2.24972791 22.61844328 -2.24972791 22.61844328 5 18 C6.51149553 13.46551342 6.77441645 9.62258684 4.6875 5.25 C3.23213658 3.30951544 1.79576776 1.62474226 0 0 Z " fill="#C02217" transform="translate(89,61)"/>
<path d="M0 0 C2.06087928 -0.00968572 4.12075173 -0.0407264 6.18139648 -0.07226562 C14.84693665 -0.10629818 20.62370309 -0.09151337 27.20288086 5.92773438 C28.22381836 7.07242188 28.22381836 7.07242188 29.26538086 8.24023438 C28.93538086 8.90023437 28.60538086 9.56023438 28.26538086 10.24023438 C27.81807617 9.81871094 27.37077148 9.3971875 26.90991211 8.96289062 C26.3053418 8.41503906 25.70077148 7.8671875 25.07788086 7.30273438 C24.48620117 6.75746094 23.89452148 6.2121875 23.28491211 5.65039062 C18.97110482 2.63823505 13.86358103 3.12231326 8.77709961 3.14257812 C7.72230156 3.14470055 7.72230156 3.14470055 6.64619446 3.14686584 C4.41504542 3.15243329 2.18399922 3.16497963 -0.04711914 3.17773438 C-1.56599789 3.18275359 -3.08487823 3.18731576 -4.60375977 3.19140625 C-8.31407926 3.20239202 -12.02433915 3.21963403 -15.73461914 3.24023438 C-16.06461914 2.58023438 -16.39461914 1.92023437 -16.73461914 1.24023438 C-11.32504754 -0.42733395 -5.60423 0.01593431 0 0 Z " fill="#BD2017" transform="translate(71.734619140625,52.759765625)"/>
<path d="M0 0 C0.78375 0.639375 1.5675 1.27875 2.375 1.9375 C6.40816706 5.10641698 8.64701047 5.16608854 13.7578125 5.31640625 C14.42086395 5.33718735 15.08391541 5.35796844 15.76705933 5.37937927 C17.88626694 5.44479231 20.005599 5.50372105 22.125 5.5625 C23.56121081 5.60569309 24.99740902 5.64930764 26.43359375 5.69335938 C29.95559594 5.80046499 33.47773825 5.90175575 37 6 C35.87548273 8.9719385 34.77706209 11.33440687 33 14 C30.29443359 14.34057617 30.29443359 14.34057617 26.8984375 14.29296875 C25.08085937 14.2784668 25.08085937 14.2784668 23.2265625 14.26367188 C21.95554687 14.23853516 20.68453125 14.21339844 19.375 14.1875 C18.09625 14.17396484 16.8175 14.16042969 15.5 14.14648438 C12.33291718 14.11103196 9.16666459 14.06161441 6 14 C6 13.67 6 13.34 6 13 C6.7113208 12.97494385 7.4226416 12.9498877 8.15551758 12.92407227 C11.37469517 12.80811561 14.59357985 12.68538755 17.8125 12.5625 C18.93205078 12.52318359 20.05160156 12.48386719 21.20507812 12.44335938 C22.27822266 12.40146484 23.35136719 12.35957031 24.45703125 12.31640625 C25.9416687 12.26141968 25.9416687 12.26141968 27.45629883 12.20532227 C30.1218351 12.09209669 30.1218351 12.09209669 33 11 C32.505 9.515 32.505 9.515 32 8 C31.20827393 7.99589111 30.41654785 7.99178223 29.60083008 7.98754883 C26.00396748 7.95459846 22.40879525 7.88394957 18.8125 7.8125 C17.56662109 7.80669922 16.32074219 7.80089844 15.03710938 7.79492188 C4.73099167 7.54624879 4.73099167 7.54624879 1.63671875 4.57421875 C0 2 0 2 0 0 Z " fill="#B8271E" transform="translate(298,78)"/>
<path d="M0 0 C1.65 0.33 3.3 0.66 5 1 C5.05423638 2.91635217 5.09289963 4.83314925 5.125 6.75 C5.14820313 7.81734375 5.17140625 8.8846875 5.1953125 9.984375 C5.00487687 12.92470106 4.52670104 14.52361878 3 17 C2.34 17 1.68 17 1 17 C-2.70357185 12.55571378 -2.68822208 7.53674585 -3 2 C-2.01 2 -1.02 2 0 2 C0 1.34 0 0.68 0 0 Z " fill="#E31F12" transform="translate(47,65)"/>
<path d="M0 0 C0.33 0 0.66 0 1 0 C1.64352377 7.77948739 1.0925022 12.91768752 -4 19 C-5.54296875 20.71875 -5.54296875 20.71875 -7 22 C-7.66 22 -8.32 22 -9 22 C-8.67 20.35 -8.34 18.7 -8 17 C-7.34 17 -6.68 17 -6 17 C-6 16.34 -6 15.68 -6 15 C-4.5 13.375 -4.5 13.375 -3 12 C-3.66 12 -4.32 12 -5 12 C-5.33 12.66 -5.66 13.32 -6 14 C-6 10.7 -6 7.4 -6 4 C-5.67 4.99 -5.34 5.98 -5 7 C-2.98491642 7.73323796 -2.98491642 7.73323796 -1 8 C-0.67 5.36 -0.34 2.72 0 0 Z " fill="#D61F12" transform="translate(103,67)"/>
<path d="M0 0 C0.66 0.33 1.32 0.66 2 1 C2 1.99 2 2.98 2 4 C-8.89 4 -19.78 4 -31 4 C-31 3.34 -31 2.68 -31 2 C-30.09644775 1.97494385 -29.19289551 1.9498877 -28.26196289 1.92407227 C-24.9203572 1.82912683 -21.57893748 1.72988379 -18.23754883 1.62768555 C-16.7893576 1.5842837 -15.34111346 1.54261256 -13.89282227 1.50268555 C-11.81510441 1.44510938 -9.73765427 1.38137972 -7.66015625 1.31640625 C-6.40855713 1.27974854 -5.15695801 1.24309082 -3.86743164 1.20532227 C-1.10369496 1.32196094 -1.10369496 1.32196094 0 0 Z " fill="#C30F03" transform="translate(285,88)"/>
<path d="M0 0 C-0.33 1.98 -0.66 3.96 -1 6 C-9.25 6 -17.5 6 -26 6 C-26 5.67 -26 5.34 -26 5 C-18.41 4.67 -10.82 4.34 -3 4 C-4.18852855 2.58225162 -4.18852855 2.58225162 -7.59765625 2.90234375 C-9.08596867 2.9090178 -10.57426432 2.92097817 -12.0625 2.9375 C-13.20041992 2.94426758 -13.20041992 2.94426758 -14.36132812 2.95117188 C-16.24091871 2.9629932 -18.12046899 2.98092922 -20 3 C-19.67 2.34 -19.34 1.68 -19 1 C-16.015625 0.5859375 -16.015625 0.5859375 -12.25 0.375 C-11.01765625 0.30023438 -9.7853125 0.22546875 -8.515625 0.1484375 C-5.66985213 0.02828265 -2.84732503 -0.03260296 0 0 Z " fill="#CD251A" transform="translate(244,55)"/>
<path d="M0 0 C2.31 0.33 4.62 0.66 7 1 C7.75 3.25 7.75 3.25 8 6 C6.0625 8.3125 6.0625 8.3125 4 10 C1.5625 9.3125 1.5625 9.3125 -1 8 C-1.9375 5.5625 -1.9375 5.5625 -2 3 C-1.34 2.01 -0.68 1.02 0 0 Z M0 3 C1 6 1 6 1 6 Z M5 3 C4.67 3.99 4.34 4.98 4 6 C4.66 6 5.32 6 6 6 C5.67 5.01 5.34 4.02 5 3 Z " fill="#B52E28" transform="translate(338,53)"/>
<path d="M0 0 C2 0.6875 2 0.6875 4 2.6875 C3.44444444 7.24305556 3.44444444 7.24305556 2 8.6875 C-0.4375 8.875 -0.4375 8.875 -3 8.6875 C-3.66 8.0275 -4.32 7.3675 -5 6.6875 C-4.75 3.625 -4.75 3.625 -4 0.6875 C-2 -0.3125 -2 -0.3125 0 0 Z " fill="#030303" transform="translate(330,148.3125)"/>
<path d="M0 0 C2.375 0.3125 2.375 0.3125 5 1 C7.4294516 4.6441774 7.16179575 6.71241272 7 11 C5.35 11.33 3.7 11.66 2 12 C1.66269158 10.56342755 1.33030409 9.12569907 1 7.6875 C0.814375 6.88699219 0.62875 6.08648437 0.4375 5.26171875 C0 3 0 3 0 0 Z " fill="#E11E0C" transform="translate(144,60)"/>
<path d="M0 0 C6.27 0 12.54 0 19 0 C19 0.33 19 0.66 19 1 C14.38 1.33 9.76 1.66 5 2 C10.28 2 15.56 2 21 2 C21 2.66 21 3.32 21 4 C13.41 4 5.82 4 -2 4 C-1.34 3.67 -0.68 3.34 0 3 C0 2.01 0 1.02 0 0 Z " fill="#E91F13" transform="translate(220,55)"/>
<path d="M0 0 C9.91194969 7.32075472 9.91194969 7.32075472 14 11 C14 11.66 14 12.32 14 13 C12.37536158 13.05395478 10.75021459 13.09277195 9.125 13.125 C7.76761719 13.15980469 7.76761719 13.15980469 6.3828125 13.1953125 C4 13 4 13 2 11 C5.465 10.505 5.465 10.505 9 10 C8.175 9.566875 7.35 9.13375 6.5 8.6875 C5.675 8.130625 4.85 7.57375 4 7 C4 6.01 4 5.02 4 4 C2.68 3.67 1.36 3.34 0 3 C0 2.01 0 1.02 0 0 Z " fill="#C0150E" transform="translate(136,79)"/>
<path d="M0 0 C1.32 0 2.64 0 4 0 C2.125 5.875 2.125 5.875 1 7 C-0.99964982 7.08758003 -3.0023611 7.10696576 -5.00390625 7.09765625 C-6.21884766 7.09443359 -7.43378906 7.09121094 -8.68554688 7.08789062 C-9.96494141 7.07951172 -11.24433594 7.07113281 -12.5625 7.0625 C-13.84576172 7.05798828 -15.12902344 7.05347656 -16.45117188 7.04882812 C-19.63416022 7.03699545 -22.81705762 7.02051068 -26 7 C-26 6.67 -26 6.34 -26 6 C-25.2886792 5.97494385 -24.5773584 5.9498877 -23.84448242 5.92407227 C-20.62530483 5.80811561 -17.40642015 5.68538755 -14.1875 5.5625 C-13.06794922 5.52318359 -11.94839844 5.48386719 -10.79492188 5.44335938 C-9.18520508 5.38051758 -9.18520508 5.38051758 -7.54296875 5.31640625 C-6.0583313 5.26141968 -6.0583313 5.26141968 -4.54370117 5.20532227 C-1.8781649 5.09209669 -1.8781649 5.09209669 1 4 C0.67 2.68 0.34 1.36 0 0 Z " fill="#BE241E" transform="translate(330,85)"/>
<path d="M0 0 C1.23979566 3.71938699 0.42346876 4.47497373 -1 8 C-1.27655683 10.75989419 -1.27655683 10.75989419 -1.1875 13.5625 C-1.18105469 14.49191406 -1.17460937 15.42132813 -1.16796875 16.37890625 C-1.01753445 18.72638102 -0.66160428 20.75054544 0 23 C-2.67626675 20.55645209 -3.79442896 18.70859863 -4.23828125 15.01953125 C-4.44352049 8.91636442 -3.0655763 5.26895927 0 0 Z " fill="#B81F16" transform="translate(293,60)"/>
<path d="M0 0 C1.98 0 3.96 0 6 0 C7.32 2.31 8.64 4.62 10 7 C8.25 7.6875 8.25 7.6875 6 8 C2.36048692 6.07319896 1.24631444 3.84280285 0 0 Z " fill="#E52112" transform="translate(187,72)"/>
<path d="M0 0 C0.66 0.33 1.32 0.66 2 1 C0.625 2.5 0.625 2.5 -1 4 C-1.66 4 -2.32 4 -3 4 C-3.4021875 5.7015625 -3.4021875 5.7015625 -3.8125 7.4375 C-4.204375 8.613125 -4.59625 9.78875 -5 11 C-5.99 11.33 -6.98 11.66 -8 12 C-8 15.96 -8 19.92 -8 24 C-8.33 24 -8.66 24 -9 24 C-9.50587831 16.62541838 -9.91429848 10.64815521 -5.37890625 4.5234375 C-3.74539551 2.71870892 -2.09815196 1.24334931 0 0 Z " fill="#BF1D16" transform="translate(211,55)"/>
<path d="M0 0 C1.32 0 2.64 0 4 0 C3.67 0.99 3.34 1.98 3 3 C2.34 3 1.68 3 1 3 C1 3.66 1 4.32 1 5 C0.34 5 -0.32 5 -1 5 C-1.33 6.32 -1.66 7.64 -2 9 C-3.32 9 -4.64 9 -6 9 C-6 7.68 -6 6.36 -6 5 C-5.38125 4.9175 -4.7625 4.835 -4.125 4.75 C-1.81562433 4.18741541 -1.81562433 4.18741541 -0.75 1.9375 C-0.5025 1.298125 -0.255 0.65875 0 0 Z " fill="#E42312" transform="translate(96,79)"/>
<path d="M0 0 C0.33 0.66 0.66 1.32 1 2 C0.06421005 4.35981813 -0.93347808 6.69631264 -2 9 C-2.66 9 -3.32 9 -4 9 C-4.28875 9.7425 -4.5775 10.485 -4.875 11.25 C-5.82302644 13.56739797 -6.84845911 15.77917115 -8 18 C-8.99 17.67 -9.98 17.34 -11 17 C-5.555 8.585 -5.555 8.585 0 0 Z " fill="#BD1E15" transform="translate(173,56)"/>
<path d="M0 0 C8.91 0 17.82 0 27 0 C27 0.99 27 1.98 27 3 C26.28432861 2.84152588 25.56865723 2.68305176 24.83129883 2.51977539 C22.08405198 2.01543043 19.4876077 1.79773833 16.69921875 1.68359375 C15.72275391 1.64169922 14.74628906 1.59980469 13.74023438 1.55664062 C12.22913086 1.49766602 12.22913086 1.49766602 10.6875 1.4375 C9.14739258 1.37272461 9.14739258 1.37272461 7.57617188 1.30664062 C5.05090431 1.20093175 2.52554438 1.09883532 0 1 C0 0.67 0 0.34 0 0 Z " fill="#DE1505" transform="translate(218,85)"/>
<path d="M0 0 C0.33 0.66 0.66 1.32 1 2 C1.99 1.67 2.98 1.34 4 1 C5.32 3.64 6.64 6.28 8 9 C6.68 9.33 5.36 9.66 4 10 C3.9175 9.4225 3.835 8.845 3.75 8.25 C2.79468987 5.3840696 1.21530827 4.0009236 -1 2 C-0.67 1.34 -0.34 0.68 0 0 Z " fill="#E62216" transform="translate(182,61)"/>
<path d="M0 0 C2.72426311 2.35277269 3.8141763 4.62496331 5 8 C2.03 8 -0.94 8 -4 8 C-3.01 7.01 -2.02 6.02 -1 5 C-0.34 5 0.32 5 1 5 C0.67 3.35 0.34 1.7 0 0 Z " fill="#C4150A" transform="translate(201,84)"/>
<path d="M0 0 C1.32 0.66 2.64 1.32 4 2 C4 3.98 4 5.96 4 8 C2.68 8 1.36 8 0 8 C-1.125 2.25 -1.125 2.25 0 0 Z " fill="#E52214" transform="translate(98,66)"/>
<path d="M0 0 C4.89000378 3.26000252 7.03142354 8.58641473 9 14 C8.34 14 7.68 14 7 14 C5.2734375 11.4453125 5.2734375 11.4453125 3.375 8.125 C2.74335938 7.03445312 2.11171875 5.94390625 1.4609375 4.8203125 C0 2 0 2 0 0 Z " fill="#BF1B11" transform="translate(192,70)"/>
<path d="M0 0 C1.67542976 0.28604898 3.34385343 0.61781233 5 1 C5.33 2.65 5.66 4.3 6 6 C4.68 6 3.36 6 2 6 C0.25 3.5 0.25 3.5 -1 1 C-0.67 0.67 -0.34 0.34 0 0 Z " fill="#E72117" transform="translate(144,60)"/>
<path d="M0 0 C1.5625 1.25 1.5625 1.25 3 3 C2.6875 5.1875 2.6875 5.1875 2 7 C0.02 7 -1.96 7 -4 7 C-3.34 6.67 -2.68 6.34 -2 6 C-1.27306096 4.02111039 -0.60183749 2.02045442 0 0 Z " fill="#E72313" transform="translate(158,83)"/>
<path d="M0 0 C0.99 0.33 1.98 0.66 3 1 C2.34 1 1.68 1 1 1 C1.185625 1.639375 1.37125 2.27875 1.5625 2.9375 C1.706875 3.618125 1.85125 4.29875 2 5 C1 6 1 6 -2.16015625 6.09765625 C-4.09181641 6.08025391 -4.09181641 6.08025391 -6.0625 6.0625 C-7.35285156 6.05347656 -8.64320313 6.04445313 -9.97265625 6.03515625 C-10.97167969 6.02355469 -11.97070312 6.01195313 -13 6 C-13 5.67 -13 5.34 -13 5 C-6.565 4.505 -6.565 4.505 0 4 C0 2.68 0 1.36 0 0 Z " fill="#DD1C09" transform="translate(188,74)"/>
<path d="M0 0 C2.64279294 1.53003802 3.34056141 2.55380386 4.375 5.375 C3.67375 5.045 2.9725 4.715 2.25 4.375 C-0.88503116 3.28455438 -3.33063182 3.22177357 -6.625 3.375 C-6.625 2.715 -6.625 2.055 -6.625 1.375 C-4.05054439 -0.34130374 -3.07144947 -0.73129749 0 0 Z " fill="#C21E12" transform="translate(180.625,52.625)"/>
<path d="M0 0 C2.31 0.33 4.62 0.66 7 1 C7.33 2.65 7.66 4.3 8 6 C7.01 6.495 7.01 6.495 6 7 C5.67 5.68 5.34 4.36 5 3 C3.02 3 1.04 3 -1 3 C-0.67 2.01 -0.34 1.02 0 0 Z " fill="#C43736" transform="translate(338,53)"/>
<path d="M0 0 C1.98 0 3.96 0 6 0 C6 0.99 6 1.98 6 3 C6.66 3.33 7.32 3.66 8 4 C8 4.66 8 5.32 8 6 C8.99 6.33 9.98 6.66 11 7 C5.95904225 6.55520961 3.58884285 4.33845847 0 1 C0 0.67 0 0.34 0 0 Z " fill="#C02216" transform="translate(293,84)"/>
<path d="M0 0 C4.78504172 2.48454089 7.86077669 4.47951843 11 9 C7.25983417 9 6.54723807 8.0658409 3.8125 5.625 C3.09707031 4.99851562 2.38164062 4.37203125 1.64453125 3.7265625 C0 2 0 2 0 0 Z " fill="#BD1C12" transform="translate(128,80)"/>
<path d="M0 0 C0.99 0 1.98 0 3 0 C2.67 1.98 2.34 3.96 2 6 C0.68 5.67 -0.64 5.34 -2 5 C-1.34 3.35 -0.68 1.7 0 0 Z " fill="#E32921" transform="translate(340,55)"/>
<path d="M0 0 C-2.22825644 2.22825644 -3.65761628 2.69239369 -6.625 3.625 C-7.44226563 3.88539062 -8.25953125 4.14578125 -9.1015625 4.4140625 C-9.72804688 4.60742188 -10.35453125 4.80078125 -11 5 C-4.74206349 -1.42261905 -4.74206349 -1.42261905 0 0 Z " fill="#BA1C15" transform="translate(305,55)"/>
<path d="M0 0 C2.625 -0.1875 2.625 -0.1875 5 0 C4.67 0.99 4.34 1.98 4 3 C1.4375 4.1875 1.4375 4.1875 -1 5 C-1.33 4.34 -1.66 3.68 -2 3 C-1.34 2.01 -0.68 1.02 0 0 Z " fill="#E01F10" transform="translate(175,55)"/>
<path d="M0 0 C0 3 0 3 -1.875 5.1875 C-4 7 -4 7 -6 7 C-5.8125 4.625 -5.8125 4.625 -5 2 C-2.4375 0.6875 -2.4375 0.6875 0 0 Z " fill="#C21E15" transform="translate(100,82)"/>
<path d="M0 0 C1.65 0 3.3 0 5 0 C4.67 1.65 4.34 3.3 4 5 C3.34 5 2.68 5 2 5 C2 4.34 2 3.68 2 3 C1.34 3 0.68 3 0 3 C0 2.01 0 1.02 0 0 Z " fill="#E52314" transform="translate(125,74)"/>
<path d="M0 0 C2.74277578 3.19990508 4.6302836 6.00499382 6 10 C3 9 3 9 1.3125 6.6875 C0 4 0 4 0 0 Z " fill="#C41A11" transform="translate(185,58)"/>
<path d="M0 0 C1.32 0.33 2.64 0.66 4 1 C4 1.66 4 2.32 4 3 C2.02 3.66 0.04 4.32 -2 5 C-1.34 3.35 -0.68 1.7 0 0 Z " fill="#CE1E13" transform="translate(303,58)"/>
<path d="M0 0 C1.2077558 3.62326739 0.54311128 4.64146369 -1 8 C-1.99 8 -2.98 8 -4 8 C-2.87548273 5.0280615 -1.77706209 2.66559313 0 0 Z " fill="#BD2015" transform="translate(157,81)"/>
<path d="M0 0 C1.32 0 2.64 0 4 0 C3.34 1.98 2.68 3.96 2 6 C0.68 5.34 -0.64 4.68 -2 4 C-1.01 4 -0.02 4 1 4 C0.67 2.68 0.34 1.36 0 0 Z " fill="#CC1B16" transform="translate(330,85)"/>
</svg>
