<svg width="256" height="256" viewBox="0 0 512 512" xmlns="http://www.w3.org/2000/svg"><rect x="0" y="0" width="512" height="512" rx="8" fill="none"/><svg xmlns="http://www.w3.org/2000/svg" viewBox="0 0 512 512" fill="#00b324" x="0" y="0" width="512" height="512"><path fill="#00b324" fill-rule="evenodd" d="M384 128v256H128V128zm-148.25 64h-24.932l-47.334 128h22.493l8.936-25.023h56.662L260.32 320h23.847zm88.344 0h-22.402v128h22.402zm-101 21.475l22.315 63.858h-44.274zM405.335 320H448v42.667h-42.667zm-256 85.333H192V448h-42.667zm85.333 0h42.666V448h-42.666zM149.333 64H192v42.667h-42.667zM320 405.333h42.667V448H320zM234.667 64h42.666v42.667h-42.666zM320 64h42.667v42.667H320zm85.333 170.667H448v42.666h-42.667zM64 320h42.667v42.667H64zm341.333-170.667H448V192h-42.667zM64 234.667h42.667v42.666H64zm0-85.334h42.667V192H64z"/></svg></svg>