<svg xmlns="http://www.w3.org/2000/svg" version="1.1" xmlns:xlink="http://www.w3.org/1999/xlink" xmlns:svgjs="http://svgjs.dev/svgjs" width="1500" height="1500" viewBox="0 0 1500 1500"><rect width="1500" height="1500" fill="#000000"></rect><g transform="matrix(0.6666666666666666,0,0,0.6666666666666666,250.5005005005005,441.6666666666667)"><svg viewBox="0 0 324 200" data-background-color="#000000" preserveAspectRatio="xMidYMid meet" height="925" width="1500" xmlns="http://www.w3.org/2000/svg" xmlns:xlink="http://www.w3.org/1999/xlink"><g id="tight-bounds" transform="matrix(1,0,0,1,-0.1621621621621614,0)"><svg viewBox="0 0 324.3243243243243 200" height="200" width="324.3243243243243"><g><svg viewBox="0 0 324.3243243243243 200" height="200" width="324.3243243243243"><g><svg viewBox="0 0 324.3243243243243 200" height="200" width="324.3243243243243"><g id="textblocktransform"><svg viewBox="0 0 324.3243243243243 200" height="200" width="324.3243243243243" id="textblock"><g><svg viewBox="0 0 324.3243243243243 200" height="200" width="324.3243243243243"><g transform="matrix(1,0,0,1,0,0)"><svg width="324.3243243243243" viewBox="2.35 -30.25 60 37" height="200" data-palette-color="#ffffff"><path d="M10.45 3.65L10.45 3.65Q8.5 3.65 7.18 2.2 5.85 0.75 5.85-1.2L5.85-1.2Q5.85-1.8 6.1-2.7L6.1-2.7Q2.35-4.2 2.35-8L2.35-8Q2.35-10.1 3.53-12.7 4.7-15.3 6.8-17.95L6.8-17.95Q9.4-21.25 12.73-23.93 16.05-26.6 19.53-28.18 23-29.75 26.05-29.75L26.05-29.75Q29.05-29.75 30.95-27.7 32.85-25.65 32.85-22.6L32.85-22.6Q32.85-21.2 32.5-20.1L32.5-20.1Q31.55-16.6 29.63-13.23 27.7-9.85 25.13-6.85 22.55-3.85 19.65-1.3L19.65-1.3 19.7-1.3Q17.3 0.8 14.75 2.23 12.2 3.65 10.45 3.65ZM10.8 2.15L10.8 2.15Q12.25 2.15 14.38 0.95 16.5-0.25 18.6-2.1L18.6-2.1Q26.55-9.1 29.65-19.7L29.65-19.7Q30.35-22.05 30.35-24L30.35-24Q30.35-26.1 29.48-27.38 28.6-28.65 26.75-28.65L26.75-28.65 26.7-28.65Q22.1-28.65 17.35-25.7L17.35-25.7Q14.2-23.7 11.58-20.98 8.95-18.25 7.18-15.23 5.4-12.2 4.75-9.3L4.75-9.3Q4.6-8.65 4.6-8L4.6-8Q4.6-5.6 6.55-4.25L6.55-4.25Q7.1-6 7.95-7.93 8.8-9.85 10.05-11.85L10.05-11.85Q11.65-14.55 13.45-16.9 15.25-19.25 16.95-20.98 18.65-22.7 19.9-23.4L19.9-23.4Q20.15-23.55 20.58-23.68 21-23.8 21.35-23.8L21.35-23.8Q22.2-23.8 21.8-23.15L21.8-23.15Q21.6-22.7 20.5-21.75L20.5-21.75Q18-19.7 15.43-16.75 12.85-13.8 10.83-10.48 8.8-7.15 7.9-3.85L7.9-3.85 8.65-3.75Q9.6-3.75 11.08-4.15 12.55-4.55 13.4-5L13.4-5Q13.7-5.15 13.85-5.15L13.85-5.15Q14.1-5.15 14.1-4.9L14.1-4.9Q14.1-4.5 13.3-4.08 12.5-3.65 11.4-3.3 10.3-2.95 9.38-2.78 8.45-2.6 8.2-2.65L8.2-2.65 7.65-2.75Q7.6-2.6 7.6-2.05L7.6-2.05Q7.6-0.3 8.47 0.93 9.35 2.15 10.8 2.15ZM24.55 6.75L24.55 6.75Q24.2 6.75 23.9 6.6L23.9 6.6Q23.2 6.15 23.2 5.35L23.2 5.35Q23.2 5 23.35 4.7L23.35 4.7Q23.65 4.1 24.7 3.2 25.75 2.3 26.95 1.6L26.95 1.6Q27.45 0.95 27.75 0.4 28.05-0.15 28.2-0.55L28.2-0.55Q29.35-2.65 30.55-4.45 31.75-6.25 32.95-7.8L32.95-7.8Q31.75-8.65 31.75-10.2L31.75-10.2Q31.75-11.5 32.4-12.85L32.4-12.85Q32.8-13.7 33.1-13.9L33.1-13.9Q33.45-14.1 33.55-14L33.55-14Q33.65-14 33.65-13.6L33.65-13.6Q33.65-13.25 33.4-12.65L33.4-12.65Q33.2-12.3 33.2-11.7L33.2-11.7Q33.2-10.45 34.35-9.6L34.35-9.6Q35.15-10.55 35.8-11.5L35.8-11.5Q37.8-14.1 39.6-16.32 41.4-18.55 43.1-20.45L43.1-20.45Q45.3-22.95 47.9-25.2 50.5-27.45 53.2-28.85 55.9-30.25 58.4-30.25L58.4-30.25Q60.2-30.25 61.27-29.55 62.35-28.85 62.35-27.5L62.35-27.5Q62.35-26.4 61.5-24.85L61.5-24.85Q60.6-23.3 59.07-21.45 57.55-19.6 55.35-17.45L55.35-17.45Q52.45-14.55 49.17-12.13 45.9-9.7 42.72-8.22 39.55-6.75 36.9-6.75L36.9-6.75Q35.3-6.75 34.25-7.25L34.25-7.25Q33-5.65 31.9-4.03 30.8-2.4 29.85-0.8L29.85-0.8Q29.8-0.45 29.15 0.6L29.15 0.6Q31.55-0.7 34.95-1.55 38.35-2.4 42.07-2.85 45.8-3.3 49.05-3.25L49.05-3.25Q51.1-3.25 52.17-2.27 53.25-1.3 53.25 0L53.25 0Q53.25 0.15 53.22 0.35 53.2 0.55 53.15 0.8L53.15 0.8Q53.1 1.6 52.77 2.23 52.45 2.85 52.05 2.85L52.05 2.85Q51.5 2.85 51.35 1.35L51.35 1.35Q51 0.05 50.4-0.6 49.8-1.25 48.1-1.25L48.1-1.25Q36.2-1.15 28.05 3.25L28.05 3.25Q27.65 4.05 27.25 4.65 26.85 5.25 26.5 5.65L26.5 5.65Q25.55 6.75 24.55 6.75ZM37.8-8.7L37.8-8.7Q41.6-8.7 46.1-11.4L46.1-11.4Q49.1-13.2 51.82-15.58 54.55-17.95 56.72-20.5 58.9-23.05 60.15-25.25L60.15-25.25Q60.95-26.65 60.95-27.5L60.95-27.5Q60.95-28.6 59.5-28.6L59.5-28.6Q59-28.6 58.3-28.45L58.3-28.45Q55.1-27.8 50.7-24.3L50.7-24.3Q47.8-22 45.02-19.33 42.25-16.65 39.82-13.98 37.4-11.3 35.55-9L35.55-9Q36.7-8.7 37.8-8.7Z" opacity="1" transform="matrix(1,0,0,1,0,0)" fill="#ffffff" class="wordmark-text-0" data-fill-palette-color="primary" id="text-0"></path></svg></g></svg></g></svg></g></svg></g></svg></g><defs></defs></svg><rect width="324.3243243243243" height="200" fill="none" stroke="none" visibility="hidden"></rect></g></svg></g></svg>